<svg xmlns="http://www.w3.org/2000/svg" xmlns:xlink="http://www.w3.org/1999/xlink" width="2000" zoomAndPan="magnify" viewBox="0 0 1500 1499.999933" height="2000" preserveAspectRatio="xMidYMid meet" version="1.0"><defs><g/><clipPath id="a83fe5731f"><path d="M 1.03125 6.285156 L 1497.269531 6.285156 L 1497.269531 1500 L 1.03125 1500 Z M 1.03125 6.285156 " clip-rule="nonzero"/></clipPath><clipPath id="5ab6c6ef7f"><path d="M 234.820312 6.285156 L 1263.480469 6.285156 C 1392.597656 6.285156 1497.269531 110.953125 1497.269531 240.070312 L 1497.269531 1268.734375 C 1497.269531 1397.851562 1392.597656 1502.519531 1263.480469 1502.519531 L 234.820312 1502.519531 C 105.703125 1502.519531 1.03125 1397.851562 1.03125 1268.734375 L 1.03125 240.070312 C 1.03125 110.953125 105.703125 6.285156 234.820312 6.285156 Z M 234.820312 6.285156 " clip-rule="nonzero"/></clipPath><clipPath id="a81195aabe"><path d="M 0.03125 0.285156 L 1496.269531 0.285156 L 1496.269531 1494 L 0.03125 1494 Z M 0.03125 0.285156 " clip-rule="nonzero"/></clipPath><clipPath id="a18c906a35"><path d="M 233.820312 0.285156 L 1262.480469 0.285156 C 1391.597656 0.285156 1496.269531 104.953125 1496.269531 234.070312 L 1496.269531 1262.734375 C 1496.269531 1391.851562 1391.597656 1496.519531 1262.480469 1496.519531 L 233.820312 1496.519531 C 104.703125 1496.519531 0.03125 1391.851562 0.03125 1262.734375 L 0.03125 234.070312 C 0.03125 104.953125 104.703125 0.285156 233.820312 0.285156 Z M 233.820312 0.285156 " clip-rule="nonzero"/></clipPath><clipPath id="312dcb0945"><rect x="0" width="1497" y="0" height="1494"/></clipPath><clipPath id="d002f68120"><rect x="0" width="1105" y="0" height="1366"/></clipPath><clipPath id="5882c8d7ce"><rect x="0" width="1054" y="0" height="1314"/></clipPath></defs><g clip-path="url(#a83fe5731f)"><g clip-path="url(#5ab6c6ef7f)"><g transform="matrix(1, 0, 0, 1, 1, 6)"><g clip-path="url(#312dcb0945)"><g clip-path="url(#a81195aabe)"><g clip-path="url(#a18c906a35)"><path fill="#3a5032" d="M 0.03125 0.285156 L 1496.269531 0.285156 L 1496.269531 1496.519531 L 0.03125 1496.519531 Z M 0.03125 0.285156 " fill-opacity="1" fill-rule="nonzero"/></g></g></g></g></g></g><g transform="matrix(1, 0, 0, 1, 0, 0.000000000000112861)"><g clip-path="url(#d002f68120)"><g fill="#ffffff" fill-opacity="1"><g transform="translate(-91.117766, 976.369342)"><g><path d="M 928.140625 -107.691406 L 840.433594 -214.273438 C 789.363281 -166.53125 720.53125 -129.894531 640.59375 -129.894531 C 487.386719 -129.894531 386.355469 -234.253906 386.355469 -413 C 386.355469 -589.523438 486.273438 -697.214844 639.484375 -697.214844 C 711.648438 -697.214844 770.492188 -667.242188 820.449219 -625.050781 L 909.269531 -731.632812 C 848.207031 -788.253906 757.167969 -838.214844 636.15625 -838.214844 C 391.90625 -838.214844 217.601562 -678.34375 217.601562 -407.449219 C 217.601562 -134.335938 396.347656 13.324219 633.933594 13.324219 C 757.167969 13.324219 849.316406 -28.867188 928.140625 -107.691406 Z M 928.140625 -107.691406 "/></g></g></g></g></g><g transform="matrix(1, 0, 0, 1, 446, 186)"><g clip-path="url(#5882c8d7ce)"><g fill="#ffffff" fill-opacity="1"><g transform="translate(0.21396, 1167.01526)"><g><path d="M 894.679688 -232.285156 C 894.679688 -354.539062 810.210938 -424.554688 701.296875 -461.230469 L 584.597656 -501.242188 C 503.464844 -527.917969 423.445312 -552.367188 423.445312 -610.160156 C 423.445312 -670.175781 492.351562 -697.960938 567.925781 -697.960938 C 653.503906 -697.960938 723.523438 -669.066406 786.875 -622.386719 L 873.5625 -730.191406 C 793.542969 -801.320312 685.734375 -839.109375 570.148438 -839.109375 C 387.878906 -839.109375 257.84375 -737.972656 257.84375 -601.269531 C 257.84375 -477.902344 361.207031 -406.773438 452.339844 -375.652344 L 570.148438 -334.53125 C 656.839844 -305.636719 727.96875 -281.183594 727.96875 -217.835938 C 727.96875 -157.820312 652.394531 -128.921875 566.816406 -128.921875 C 480.125 -128.921875 380.101562 -167.820312 313.414062 -223.390625 L 218.945312 -108.917969 C 310.082031 -30.007812 433.445312 13.335938 564.59375 13.335938 C 767.980469 13.335938 894.679688 -92.246094 894.679688 -232.285156 Z M 894.679688 -232.285156 "/></g></g></g></g></g></svg>